<svg width="70" height="71" viewBox="0 0 70 71" fill="none" xmlns="http://www.w3.org/2000/svg">
<path d="M68.7163 35.3895C68.7163 54.0944 53.5529 69.2578 34.848 69.2578C16.1431 69.2578 0.979694 54.0944 0.979694 35.3895C0.979694 16.6846 16.1431 1.5212 34.848 1.5212C53.5529 1.5212 68.7163 16.6846 68.7163 35.3895Z" fill="#0C0C0C" fill-opacity="0.3" stroke="#9D74FF" stroke-width="1.86955"/>
<path d="M47.3357 32.855C42.6841 22.8439 40.2644 19.041 32.6647 19.2001C29.9574 19.2552 30.6062 17.2374 28.5415 18.0025C26.481 18.7676 28.2498 19.8876 26.1402 21.6197C20.2196 26.4815 20.7644 30.9781 23.5105 41.6951C24.6672 46.21 20.7215 46.4304 22.2823 50.8045C23.4227 53.9954 31.8283 55.3317 40.6949 52.0429C49.5636 48.7521 55.1516 42.2215 54.0112 39.0306C52.4504 34.6545 49.2963 37.07 47.3357 32.855ZM39.734 49.3458C31.814 52.2836 25.3058 50.5577 25.0304 49.7885C24.5571 48.4624 27.5867 44.0434 36.6411 40.6832C45.6954 37.323 50.7489 38.5696 51.2773 40.0487C51.5895 40.9239 47.656 46.4059 39.734 49.3458ZM37.1878 42.2174C33.0483 43.7537 30.1716 45.5103 28.3069 47.0914C29.6188 48.2829 32.0751 48.5726 34.5213 47.6647C37.6367 46.512 39.5524 43.8577 38.7955 41.74L38.7628 41.6666C38.2514 41.8325 37.7264 42.0161 37.1878 42.2174Z" fill="#9D74FF"/>
</svg>
