<svg width="70" height="71" viewBox="0 0 70 71" fill="none" xmlns="http://www.w3.org/2000/svg">
<path d="M68.9507 35.3895C68.9507 54.0944 53.7873 69.2578 35.0824 69.2578C16.3774 69.2578 1.21407 54.0944 1.21407 35.3895C1.21407 16.6846 16.3774 1.5212 35.0824 1.5212C53.7873 1.5212 68.9507 16.6846 68.9507 35.3895Z" fill="#0C0C0C" fill-opacity="0.3" stroke="#9D74FF" stroke-width="1.86955"/>
<path d="M45.4843 26.0929C44.7433 25.3516 44.3095 24.358 44.2695 23.3107C44.2295 22.2634 44.5864 21.2396 45.2688 20.444C45.3252 20.3779 45.3545 20.2928 45.3509 20.2059C45.3473 20.119 45.3109 20.0367 45.2492 19.9755L41.3185 16.0404C41.2535 15.9754 41.1654 15.939 41.0735 15.939C40.9817 15.939 40.8936 15.9754 40.8286 16.0404L34.5634 22.3056C34.3322 22.5367 34.158 22.8185 34.0548 23.1286C33.9519 23.4394 33.778 23.722 33.5468 23.9539C33.3157 24.1859 33.0337 24.3607 32.7232 24.4647C32.4129 24.5681 32.1308 24.7422 31.8993 24.9733L15.8319 41.0371C15.767 41.1021 15.7305 41.1902 15.7305 41.282C15.7305 41.3739 15.767 41.462 15.8319 41.527L19.7626 45.4577C19.8238 45.5194 19.9061 45.5558 19.993 45.5594C20.0799 45.563 20.1649 45.5337 20.2311 45.4773C21.0265 44.7942 22.0505 44.4367 23.0982 44.4765C24.1458 44.5162 25.1399 44.9502 25.8812 45.6915C26.6226 46.4329 27.0566 47.4269 27.0963 48.4746C27.136 49.5223 26.7786 50.5463 26.0955 51.3417C26.039 51.4078 26.0097 51.4929 26.0133 51.5798C26.017 51.6666 26.0533 51.7489 26.1151 51.8102L30.0457 55.7408C30.1107 55.8058 30.1988 55.8423 30.2907 55.8423C30.3826 55.8423 30.4707 55.8058 30.5356 55.7408L46.6039 39.6734C46.835 39.4419 47.0091 39.1599 47.1125 38.8495C47.2154 38.5387 47.3894 38.2561 47.6205 38.0242C47.8516 37.7923 48.1336 37.6174 48.4441 37.5135C48.7543 37.4102 49.0361 37.2361 49.2671 37.0049L55.5323 30.7397C55.5973 30.6747 55.6338 30.5866 55.6338 30.4947C55.6338 30.4029 55.5973 30.3148 55.5323 30.2498L51.6017 26.3191C51.5404 26.2573 51.4581 26.221 51.3713 26.2174C51.2844 26.2137 51.1993 26.2431 51.1332 26.2995C50.3387 26.983 49.3155 27.3414 48.2682 27.3031C47.2209 27.2648 46.2267 26.8326 45.4843 26.0929Z" stroke="#9D74FF" stroke-width="2.40021" stroke-miterlimit="10"/>
<path d="M35.1932 25.5975L33.7227 24.127M39.1141 29.5184L38.1334 28.5386M43.035 33.4402L42.0552 32.4595M47.4466 37.8509L45.9761 36.3804" stroke="#9D74FF" stroke-width="2.40021" stroke-miterlimit="10" stroke-linecap="round"/>
</svg>
