<svg width="71" height="71" viewBox="0 0 71 71" fill="none" xmlns="http://www.w3.org/2000/svg">
<path d="M69.4839 35.3895C69.4839 54.0944 54.3205 69.2578 35.6156 69.2578C16.9106 69.2578 1.74727 54.0944 1.74727 35.3895C1.74727 16.6846 16.9106 1.5212 35.6156 1.5212C54.3205 1.5212 69.4839 16.6846 69.4839 35.3895Z" fill="#0C0C0C" fill-opacity="0.3" stroke="#9D74FF" stroke-width="1.86955"/>
<path d="M30.2168 47.7249V45.667C30.2168 39.9846 34.8234 35.3779 40.5059 35.3779C46.1884 35.3779 50.795 39.9846 50.795 45.667V47.7249" stroke="#9D74FF" stroke-width="2.3518" stroke-linecap="round" stroke-linejoin="round"/>
<path d="M17.8711 47.7323V45.6744C17.8711 42.2648 20.6351 39.501 24.0446 39.501" stroke="#9D74FF" stroke-width="2.3518" stroke-linecap="round" stroke-linejoin="round"/>
<path d="M40.5055 35.3796C43.9151 35.3796 46.679 32.6158 46.679 29.2062C46.679 25.7967 43.9151 23.0327 40.5055 23.0327C37.0959 23.0327 34.332 25.7967 34.332 29.2062C34.332 32.6158 37.0959 35.3796 40.5055 35.3796Z" stroke="#9D74FF" stroke-width="3.52769" stroke-linecap="round" stroke-linejoin="round"/>
<path d="M24.0434 39.4969C26.3164 39.4969 28.159 37.6543 28.159 35.3813C28.159 33.1082 26.3164 31.2656 24.0434 31.2656C21.7704 31.2656 19.9277 33.1082 19.9277 35.3813C19.9277 37.6543 21.7704 39.4969 24.0434 39.4969Z" stroke="#9D74FF" stroke-width="2.3518" stroke-linecap="round" stroke-linejoin="round"/>
</svg>
